<svg width="208" height="194" viewBox="0 0 208 194" fill="none" xmlns="http://www.w3.org/2000/svg">
<g filter="url(#filter0_d_477_367)">
<g opacity="0.1">
<path d="M198.021 70.8389C198.021 70.8389 198.72 73.8425 196.403 77.196C196.403 77.196 200.187 77.0804 202.007 79.5654C202.007 79.5654 201.401 75.9535 204 73.2083C204 73.2083 200.447 73.8441 198.021 70.8389Z" fill="white"/>
</g>
<path d="M6.29891 117.193C6.29891 117.193 7.29167 121.461 4 126.227C4 126.227 9.37785 126.063 11.9641 129.595C11.9641 129.595 11.102 124.461 14.7967 120.56C14.7967 120.56 9.7473 121.464 6.29891 117.193Z" fill="white"/>
<g opacity="0.6">
<path d="M186.687 116.844C186.687 116.844 187.385 119.847 185.069 123.201C185.069 123.201 188.853 123.085 190.673 125.57C190.673 125.57 190.067 121.958 192.666 119.213C192.666 119.213 189.113 119.849 186.687 116.844Z" fill="white"/>
</g>
<g opacity="0.300003">
<g opacity="0.300003">
<path opacity="0.300003" d="M192.506 178.255C192.506 181.376 153.088 183.906 104.463 183.906C55.8386 183.906 16.4204 181.376 16.4204 178.255C16.4204 175.134 55.8386 172.604 104.463 172.604C153.088 172.604 192.506 175.134 192.506 178.255Z" fill="#000072"/>
</g>
</g>
<path d="M178.573 171.185C175.079 175.238 169.953 177.518 164.601 177.518H44.3248C38.9724 177.518 33.8465 175.238 30.3525 171.185C28.4222 168.945 26.9951 166.449 26.0353 163.896C26.0318 163.896 26.0317 163.896 26.0317 163.893C23.0123 155.881 24.5508 147.283 29.3676 144.191C37.4555 138.991 43.6922 145.345 43.6922 145.345C44.3823 143.723 45.3169 142.317 46.363 141.113C50.3027 136.56 55.824 134.827 55.824 134.827C52.8225 117.606 59.5229 102.004 59.5229 102.004C59.5229 102.004 76.033 114.485 104.463 114.485C132.893 114.485 149.403 102.004 149.403 102.004C149.403 102.004 156.103 117.606 153.102 134.827C153.102 134.827 161.941 137.603 165.234 145.345C165.234 145.345 171.47 138.991 179.558 144.191C185.91 148.272 186.561 161.926 178.573 171.185Z" fill="#B11313"/>
<g opacity="0.300003">
<g opacity="0.300003">
<path opacity="0.300003" d="M48.4866 161.221C49.601 150.43 43.6914 145.773 43.6914 145.773C44.3816 144.151 45.3162 142.745 46.3622 141.541C55.5285 152.508 48.4866 161.221 48.4866 161.221Z" fill="#000072"/>
</g>
</g>
<g opacity="0.300003">
<g opacity="0.300003">
<path opacity="0.300003" d="M160.471 161.221C159.357 150.43 165.266 145.773 165.266 145.773C164.576 144.151 163.642 142.745 162.596 141.541C153.429 152.508 160.471 161.221 160.471 161.221Z" fill="#000072"/>
</g>
</g>
<g opacity="0.300003">
<g opacity="0.300003">
<path opacity="0.300003" d="M161.406 170.28C160.55 170.066 159.667 169.993 158.79 170.089C157.54 170.226 155.389 170.439 152.235 170.676C147.487 171.032 143.34 167.463 143.016 162.711C142.877 160.67 143.182 159.085 143.293 158.595C142.053 163.896 139.764 168.781 138.368 171.46C131.282 171.755 122.306 171.996 111.208 172.066C110.609 150.613 123.067 130.497 123.067 130.497C103.979 145.773 85.8884 130.497 85.8884 130.497C98.4842 152.862 97.8284 171.135 97.8284 171.135L99.9497 172.078C87.8292 172.027 78.1362 171.775 70.5875 171.46C69.1915 168.781 66.9021 163.897 65.6623 158.595C65.7774 159.105 66.103 160.799 65.92 162.959C65.526 167.609 61.3759 171.025 56.7241 170.676C53.5676 170.44 51.416 170.227 50.1655 170.089C49.2881 169.993 48.4052 170.066 47.5488 170.28C33.8634 173.688 26.2798 164.624 26.0356 164.324C26.9954 166.877 28.4225 169.373 30.3528 171.613C33.8468 175.666 38.9727 177.945 44.3251 177.945H104.478H164.63C169.983 177.945 175.108 175.666 178.602 171.613C180.533 169.373 181.96 166.877 182.92 164.324C182.675 164.624 175.092 173.688 161.406 170.28Z" fill="#000072"/>
</g>
</g>
<g opacity="0.300003">
<g opacity="0.300003">
<path opacity="0.300003" d="M65.6633 158.594C65.6399 158.49 65.625 158.434 65.625 158.434C65.6373 158.487 65.6508 158.54 65.6633 158.594Z" fill="#000072"/>
</g>
</g>
<g opacity="0.300003">
<g opacity="0.300003">
<path opacity="0.300003" d="M143.295 158.594C143.307 158.54 143.321 158.487 143.333 158.434C143.333 158.434 143.318 158.49 143.295 158.594Z" fill="#000072"/>
</g>
</g>
<path d="M104.451 176.699H164.604C169.65 176.699 174.399 174.549 177.634 170.8C181.812 165.956 183.873 159.248 183.011 153.294C182.507 149.808 181.004 147.028 178.889 145.668C171.736 141.068 166.351 146.419 166.125 146.649C165.834 146.946 165.414 147.079 165.004 147C164.595 146.923 164.252 146.646 164.089 146.264C161.056 139.131 152.814 136.473 152.731 136.447C152.134 136.26 151.769 135.659 151.876 135.043C154.263 121.358 150.32 108.554 148.811 104.359C144.29 107.315 128.736 116.162 104.466 116.162C80.1965 116.162 64.6416 107.315 60.1215 104.359C58.6116 108.554 54.6686 121.358 57.0557 135.043C57.1631 135.659 56.7976 136.26 56.2011 136.447C56.1196 136.473 47.8638 139.16 44.8429 146.264C44.68 146.646 44.3367 146.923 43.9279 147C43.5193 147.078 43.0984 146.946 42.8071 146.649C42.582 146.423 37.1503 141.097 30.043 145.668C27.9276 147.028 26.425 149.808 25.9207 153.294C25.0593 159.248 27.1197 165.956 31.2981 170.8C34.5326 174.549 39.2816 176.699 44.3276 176.699H104.451ZM164.604 179.192H44.3276C38.5563 179.192 33.1195 176.727 29.4112 172.428C24.775 167.054 22.4923 159.585 23.4542 152.937C24.0708 148.674 25.9321 145.348 28.6953 143.571C35.2715 139.342 40.8202 142.104 43.2585 143.824C46.3513 138.159 52.0897 135.381 54.4317 134.442C51.8236 117.477 58.1065 102.578 58.3807 101.94C58.5318 101.588 58.8363 101.325 59.2065 101.227C59.5772 101.129 59.9716 101.206 60.277 101.437C60.4384 101.559 76.8335 113.668 104.466 113.668C132.098 113.668 148.494 101.559 148.656 101.437C148.962 101.206 149.357 101.129 149.726 101.227C150.096 101.326 150.401 101.588 150.551 101.94C150.826 102.578 157.108 117.477 154.5 134.442C156.842 135.381 162.581 138.159 165.674 143.824C168.111 142.104 173.66 139.341 180.237 143.571C183 145.348 184.861 148.674 185.478 152.937C186.44 159.585 184.157 167.054 179.521 172.428C175.813 176.727 170.376 179.192 164.604 179.192Z" fill="#000072"/>
<path d="M44.4173 144.757C44.554 144.851 44.6177 144.902 44.7119 144.972C44.8013 145.038 44.8733 145.101 44.9549 145.167C45.1168 145.298 45.2536 145.435 45.4002 145.571C45.5503 145.705 45.674 145.852 45.8088 145.995C45.9445 146.137 46.0719 146.283 46.1914 146.434C46.6879 147.03 47.1054 147.671 47.4776 148.334C48.2237 149.659 48.7195 151.088 49.064 152.526C49.4 153.971 49.5241 155.438 49.5243 156.886C49.5269 157.61 49.4461 158.331 49.3969 159.044C49.2895 159.757 49.1722 160.463 49.0231 161.16C48.9946 161.293 48.8638 161.377 48.731 161.349C48.63 161.327 48.557 161.247 48.5401 161.151L48.5372 161.134C48.4151 160.434 48.3391 159.744 48.2473 159.061L48.0687 158.043C48.0033 157.707 47.979 157.367 47.8895 157.037C47.7221 156.377 47.6324 155.709 47.4211 155.07C47.3291 154.749 47.2569 154.423 47.1567 154.107L46.8354 153.169C46.3921 151.931 45.8505 150.747 45.198 149.653C45.0281 149.385 44.8691 149.107 44.6845 148.853L44.4176 148.463L44.1314 148.093C43.9499 147.837 43.7394 147.613 43.5424 147.382C43.4409 147.273 43.3401 147.154 43.2375 147.057C43.1883 147.007 43.1357 146.947 43.0892 146.904C43.0477 146.864 42.9798 146.8 42.9752 146.791L42.7063 146.251C42.4175 145.67 42.6535 144.966 43.2336 144.677C43.6266 144.481 44.078 144.527 44.4173 144.757Z" fill="#000072"/>
<path d="M165.927 146.791C165.922 146.8 165.854 146.864 165.813 146.904C165.767 146.947 165.714 147.007 165.665 147.057C165.562 147.154 165.461 147.273 165.36 147.382C165.163 147.613 164.952 147.837 164.771 148.093L164.485 148.463L164.218 148.853C164.033 149.107 163.874 149.385 163.704 149.653C163.052 150.747 162.51 151.931 162.067 153.169L161.746 154.108C161.645 154.424 161.573 154.749 161.481 155.07C161.27 155.709 161.18 156.377 161.013 157.037C160.923 157.367 160.899 157.707 160.834 158.043L160.655 159.061C160.563 159.744 160.487 160.434 160.365 161.134L160.362 161.151C160.339 161.285 160.211 161.374 160.077 161.351C159.976 161.333 159.9 161.255 159.879 161.16C159.73 160.463 159.613 159.757 159.505 159.044C159.456 158.331 159.375 157.61 159.378 156.886C159.378 155.438 159.502 153.971 159.838 152.526C160.183 151.088 160.679 149.659 161.425 148.334C161.797 147.671 162.214 147.03 162.711 146.434C162.83 146.283 162.958 146.137 163.093 145.995C163.228 145.852 163.352 145.705 163.502 145.571C163.649 145.435 163.785 145.298 163.947 145.167C164.029 145.101 164.101 145.038 164.19 144.972C164.285 144.902 164.348 144.851 164.485 144.757C165.02 144.392 165.75 144.531 166.115 145.067C166.362 145.429 166.379 145.882 166.197 146.249L165.927 146.791Z" fill="#000072"/>
<path d="M57.0645 135.109L57.166 136.105L57.2929 137.219C57.3375 137.598 57.397 137.979 57.4298 138.379C57.4663 138.778 57.488 139.191 57.4678 139.637L57.4677 139.639C57.4645 139.709 57.4052 139.764 57.3349 139.761C57.3098 139.759 57.2867 139.751 57.2676 139.737C56.9014 139.48 56.5864 139.184 56.3138 138.861C56.0345 138.541 55.8061 138.192 55.5832 137.834C55.3654 137.473 55.167 137.099 54.9944 136.706C54.9132 136.508 54.829 136.309 54.7636 136.099C54.7283 135.995 54.6965 135.888 54.668 135.778C54.6372 135.66 54.6165 135.573 54.5899 135.405C54.4817 134.724 54.9454 134.085 55.6255 133.977C56.3057 133.869 56.9447 134.333 57.0527 135.013C57.0562 135.035 57.059 135.057 57.0614 135.078L57.0645 135.109Z" fill="#000072"/>
<path d="M154.37 135.405C154.343 135.573 154.323 135.66 154.292 135.778C154.263 135.888 154.232 135.995 154.196 136.099C154.131 136.309 154.047 136.508 153.966 136.706C153.793 137.099 153.595 137.473 153.377 137.834C153.154 138.192 152.925 138.541 152.646 138.861C152.374 139.184 152.059 139.48 151.692 139.737C151.635 139.778 151.556 139.764 151.515 139.707C151.501 139.686 151.493 139.663 151.492 139.639L151.492 139.637C151.472 139.191 151.494 138.778 151.53 138.379C151.563 137.979 151.622 137.599 151.667 137.219L151.794 136.105L151.895 135.109L151.898 135.082C151.968 134.397 152.58 133.898 153.265 133.968C153.95 134.038 154.449 134.65 154.379 135.335C154.377 135.357 154.373 135.383 154.37 135.405Z" fill="#000072"/>
<path d="M63.1111 147.464C63.1111 147.464 57.4065 143.039 55.8274 135.256C55.8274 135.256 52.5456 133.597 50.2773 138.087C50.2773 138.087 52.8939 151.793 65.626 158.435C65.626 158.435 63.7862 151.379 63.1111 147.464Z" fill="#0096F2"/>
<path d="M51.5948 138.265C52.1087 140.358 54.8758 149.914 63.6826 155.832C63.1253 153.57 62.3867 150.444 61.9632 148.131C60.6421 146.985 56.3424 142.842 54.7627 136.217C54.0454 136.094 52.7539 136.238 51.5948 138.265ZM65.6249 159.681C65.4281 159.681 65.2305 159.634 65.0488 159.539C51.933 152.697 49.1639 138.904 49.0524 138.32C49.0008 138.05 49.0401 137.77 49.1644 137.524C50.5812 134.72 52.4338 133.925 53.7384 133.752C55.182 133.559 56.2694 134.083 56.3886 134.143C56.7291 134.316 56.972 134.634 57.0478 135.008C58.5101 142.215 63.8223 146.438 63.8757 146.48C64.1195 146.671 64.2857 146.947 64.3382 147.252C64.9966 151.069 66.8126 158.049 66.8309 158.119C66.9551 158.596 66.7868 159.102 66.4014 159.409C66.1762 159.589 65.9015 159.681 65.6249 159.681Z" fill="#000072"/>
<path d="M145.85 147.464C145.85 147.464 151.554 143.039 153.133 135.256C153.133 135.256 156.415 133.597 158.684 138.087C158.684 138.087 156.067 151.793 143.335 158.435C143.335 158.435 145.175 151.379 145.85 147.464Z" fill="#0096F2"/>
<path d="M146.995 148.131C146.571 150.445 145.833 153.57 145.275 155.832C154.082 149.915 156.849 140.359 157.363 138.264C156.661 137.034 155.831 136.348 154.892 136.223C154.629 136.188 154.388 136.203 154.191 136.234C152.609 142.849 148.315 146.986 146.995 148.131ZM143.333 159.681C143.057 159.681 142.782 159.589 142.557 159.409C142.171 159.102 142.003 158.596 142.127 158.119C142.145 158.049 143.962 151.069 144.62 147.252C144.673 146.946 144.838 146.671 145.082 146.48C145.136 146.438 150.448 142.215 151.91 135.008C151.986 134.634 152.229 134.316 152.57 134.144C152.689 134.083 153.776 133.559 155.22 133.752C156.524 133.925 158.377 134.72 159.794 137.524C159.918 137.77 159.957 138.05 159.906 138.32C159.794 138.904 157.025 152.697 143.909 159.539C143.728 159.634 143.53 159.681 143.333 159.681Z" fill="#000072"/>
<path d="M80.2979 115.621C80.2979 115.621 82.4397 121.694 81.8234 130.556L88.8805 136.698C88.8805 136.698 90.7248 125.993 87.5836 117.101L80.2979 115.621Z" fill="#0096F2"/>
<path d="M83.1074 130.02L87.933 134.22C88.2598 130.804 88.5384 124.106 86.6338 118.18L82.0506 117.249C82.6429 119.714 83.4334 124.25 83.1074 130.02ZM88.8822 137.945C88.5861 137.945 88.2944 137.84 88.0641 137.639L81.0071 131.497C80.7123 131.24 80.5549 130.86 80.5819 130.47C81.1708 122.002 79.1443 116.093 79.1238 116.035C78.9757 115.611 79.0659 115.141 79.3606 114.803C79.6555 114.465 80.1092 114.313 80.5475 114.4L87.8331 115.88C88.2623 115.967 88.6142 116.273 88.76 116.686C91.9728 125.78 90.1875 136.46 90.1102 136.91C90.0336 137.354 89.724 137.722 89.2999 137.873C89.1638 137.921 89.0224 137.945 88.8822 137.945Z" fill="#000072"/>
<path d="M128.661 115.621C128.661 115.621 126.519 121.694 127.135 130.556L120.078 136.698C120.078 136.698 118.234 125.993 121.375 117.101L128.661 115.621Z" fill="#0096F2"/>
<path d="M122.325 118.181C120.417 124.118 120.697 130.81 121.025 134.222L125.852 130.021C125.526 124.251 126.316 119.715 126.909 117.25L122.325 118.181ZM120.077 137.946C119.937 137.946 119.796 137.922 119.659 137.874C119.235 137.723 118.926 137.355 118.849 136.911C118.772 136.461 116.986 125.781 120.199 116.687C120.345 116.274 120.697 115.968 121.126 115.881L128.412 114.401C128.852 114.31 129.305 114.466 129.6 114.804C129.894 115.143 129.984 115.613 129.835 116.036C129.803 116.13 127.79 122.028 128.377 130.471C128.404 130.861 128.247 131.241 127.952 131.498L120.895 137.64C120.665 137.841 120.373 137.946 120.077 137.946Z" fill="#000072"/>
<path d="M97.4409 174.051C95.6652 182.775 85.5427 186.766 78.4289 181.419C72.8609 177.237 66.7464 167.672 62.9685 146.697C62.609 144.687 62.2675 142.569 61.9512 140.343L64.356 138.063L80.2982 122.939C80.2982 122.939 96.0031 147.262 97.7429 165.906V165.91C98.0161 168.798 97.9514 171.548 97.4409 174.051Z" fill="#B11313"/>
<g opacity="0.300003">
<g opacity="0.300003">
<path opacity="0.300003" d="M97.4415 174.052C95.6657 182.776 85.5432 186.767 78.4295 181.42C72.8614 177.238 66.7469 167.673 62.969 146.698C57.6525 143.494 55.8264 135.256 55.8264 135.256C53.5331 124.317 56.1787 114.234 56.1787 114.234C55.6753 127.549 60.9581 133.9 63.137 135.939C63.7441 136.507 64.1684 137.24 64.3533 138.051C64.3544 138.055 64.3554 138.06 64.3565 138.064C68.2495 155.296 74.7701 176.289 84.2312 177.792C93.3652 179.241 97.3013 167.339 97.7434 165.911C98.0166 168.799 97.9519 171.549 97.4415 174.052Z" fill="#000072"/>
</g>
</g>
<path d="M81.664 121.776C83.4792 123.754 84.9144 125.96 86.2159 128.239C86.8617 129.381 87.4508 130.553 88.0363 131.726C88.6215 132.9 89.1948 134.08 89.7535 135.267C91.9909 140.015 94.028 144.869 95.7201 149.872C97.4138 154.868 98.7777 160.03 99.275 165.405C99.5142 168.088 99.5289 170.833 99.0731 173.582C98.9744 174.256 98.8303 174.981 98.6084 175.678C98.4072 176.38 98.1216 177.058 97.8125 177.722C97.1673 179.039 96.3076 180.254 95.2824 181.305C93.2108 183.385 90.4736 184.789 87.5674 185.201C86.1182 185.428 84.6297 185.378 83.1853 185.122C81.7419 184.848 80.3481 184.329 79.0738 183.615C78.4506 183.247 77.8229 182.841 77.2813 182.395L76.469 181.728C76.1948 181.509 75.9592 181.255 75.703 181.019C75.4556 180.776 75.1922 180.546 74.9591 180.292L74.2641 179.526C73.7844 179.027 73.3866 178.472 72.9561 177.939C71.2926 175.769 69.9657 173.409 68.8009 171.003C67.6171 168.599 66.7121 166.099 65.8356 163.6C65.0222 161.082 64.2812 158.546 63.6717 155.985C63.3705 154.704 63.047 153.427 62.8012 152.137C62.548 150.848 62.2447 149.568 62.0606 148.268C61.653 145.675 61.4617 143.046 61.6859 140.38C61.6986 140.229 61.831 140.117 61.9817 140.13C62.0867 140.139 62.1728 140.206 62.2112 140.297L62.2144 140.305C62.7325 141.544 63.1245 142.794 63.4625 144.051C63.7953 145.309 64.1402 146.559 64.4016 147.824C64.6516 149.092 64.9445 150.347 65.2203 151.607C65.4822 152.871 65.8197 154.114 66.1345 155.362C66.7712 157.857 67.5332 160.31 68.3592 162.734C69.245 165.13 70.1551 167.522 71.3124 169.774C72.446 172.034 73.739 174.203 75.2584 176.157C75.6508 176.632 76.0148 177.138 76.4441 177.572L77.0658 178.248C77.2737 178.473 77.5052 178.667 77.723 178.879C77.9478 179.081 78.156 179.307 78.3935 179.491L79.0951 180.057C79.5601 180.436 80.0351 180.73 80.5312 181.023C81.5329 181.571 82.612 181.962 83.7276 182.166C84.8442 182.351 85.9934 182.386 87.1157 182.198C89.3683 181.865 91.4873 180.744 93.079 179.132C93.8721 178.321 94.5377 177.386 95.041 176.368C95.2794 175.852 95.5065 175.329 95.663 174.778C95.8389 174.235 95.9512 173.679 96.042 173.067C96.446 170.676 96.45 168.172 96.2321 165.675C96.0114 163.175 95.5676 160.672 94.993 158.19C94.4219 155.707 93.7081 153.245 92.9137 150.805C91.3212 145.924 89.3752 141.138 87.224 136.444C86.687 135.27 86.1351 134.102 85.5711 132.94C85.0101 131.776 84.4193 130.628 83.872 129.456C82.7668 127.118 81.7257 124.742 80.9042 122.23L80.9016 122.222C80.8239 121.985 80.9533 121.729 81.1905 121.652C81.3642 121.595 81.5478 121.65 81.664 121.776Z" fill="#000072"/>
<path d="M66.4564 162.467C66.1209 162.467 65.7861 162.332 65.5406 162.066C65.074 161.56 65.1049 160.773 65.6099 160.306C66.0723 159.878 77.1255 149.819 94.0485 148.554C94.7328 148.499 95.3326 149.017 95.384 149.704C95.4353 150.39 94.9205 150.989 94.2342 151.04C78.2091 152.238 67.4084 162.038 67.3012 162.137C67.0616 162.358 66.7585 162.467 66.4564 162.467Z" fill="#000072"/>
<path d="M111.519 174.051C113.294 182.775 123.417 186.766 130.531 181.419C136.099 177.237 142.213 167.672 145.991 146.697C146.351 144.687 146.692 142.569 147.009 140.343L144.604 138.063L128.662 122.939C128.662 122.939 112.957 147.262 111.217 165.906V165.91C110.944 168.798 111.008 171.548 111.519 174.051Z" fill="#B11313"/>
<g opacity="0.300003">
<g opacity="0.300003">
<path opacity="0.300003" d="M111.518 174.052C113.294 182.776 123.416 186.767 130.53 181.42C136.098 177.238 142.213 167.673 145.991 146.698C151.307 143.494 153.133 135.256 153.133 135.256C155.427 124.317 152.781 114.234 152.781 114.234C153.284 127.549 148.002 133.9 145.823 135.939C145.216 136.507 144.791 137.24 144.606 138.051C144.605 138.055 144.604 138.06 144.603 138.064C140.71 155.296 134.19 176.289 124.728 177.792C115.595 179.241 111.658 167.339 111.216 165.911C110.943 168.799 111.008 171.549 111.518 174.052Z" fill="#000072"/>
</g>
</g>
<path d="M128.055 122.23C127.233 124.742 126.192 127.118 125.087 129.456C124.54 130.628 123.949 131.776 123.388 132.94C122.824 134.102 122.272 135.27 121.735 136.444C119.584 141.138 117.638 145.924 116.045 150.805C115.251 153.245 114.537 155.707 113.966 158.19C113.391 160.672 112.948 163.175 112.727 165.675C112.509 168.172 112.513 170.676 112.917 173.067C113.008 173.679 113.12 174.235 113.296 174.779C113.452 175.329 113.68 175.852 113.918 176.368C114.421 177.386 115.087 178.321 115.88 179.131C117.472 180.744 119.591 181.865 121.843 182.198C122.966 182.386 124.115 182.351 125.231 182.165C126.347 181.962 127.426 181.571 128.428 181.023C128.924 180.73 129.399 180.436 129.864 180.057L130.565 179.491C130.803 179.307 131.011 179.081 131.236 178.879C131.454 178.667 131.685 178.473 131.893 178.248L132.515 177.573C132.944 177.138 133.308 176.632 133.701 176.157C135.22 174.203 136.513 172.034 137.647 169.774C138.804 167.522 139.714 165.13 140.6 162.734C141.426 160.31 142.188 157.857 142.825 155.362C143.139 154.114 143.477 152.871 143.739 151.607C144.015 150.347 144.307 149.092 144.557 147.824C144.819 146.559 145.164 145.309 145.497 144.051C145.835 142.794 146.226 141.544 146.745 140.305L146.748 140.297C146.806 140.158 146.966 140.092 147.106 140.15C147.203 140.191 147.265 140.282 147.273 140.38C147.497 143.046 147.306 145.675 146.898 148.268C146.714 149.568 146.411 150.848 146.158 152.137C145.912 153.428 145.589 154.704 145.287 155.985C144.678 158.546 143.937 161.082 143.124 163.6C142.247 166.099 141.342 168.599 140.158 171.003C138.993 173.409 137.666 175.769 136.003 177.939C135.572 178.472 135.175 179.026 134.695 179.526L134 180.292C133.767 180.546 133.503 180.776 133.256 181.019C133 181.255 132.764 181.509 132.49 181.728L131.678 182.394C131.136 182.841 130.508 183.247 129.885 183.615C128.611 184.329 127.217 184.848 125.774 185.122C124.329 185.378 122.841 185.428 121.392 185.201C118.485 184.789 115.748 183.385 113.677 181.305C112.651 180.254 111.792 179.039 111.146 177.722C110.837 177.058 110.552 176.38 110.351 175.678C110.129 174.981 109.984 174.256 109.886 173.582C109.43 170.833 109.445 168.088 109.684 165.405C110.181 160.03 111.545 154.868 113.239 149.872C114.931 144.869 116.968 140.015 119.205 135.267C119.764 134.08 120.337 132.9 120.923 131.726C121.508 130.553 122.097 129.381 122.743 128.239C124.045 125.96 125.48 123.754 127.295 121.776C127.464 121.592 127.75 121.58 127.934 121.748C128.068 121.872 128.111 122.059 128.058 122.222L128.055 122.23Z" fill="#000072"/>
<path d="M142.503 162.467C142.2 162.467 141.897 162.358 141.658 162.136C141.55 162.037 130.75 152.238 114.725 151.039C114.038 150.988 113.524 150.39 113.575 149.703C113.626 149.017 114.225 148.498 114.91 148.553C131.833 149.819 142.887 159.877 143.349 160.305C143.854 160.772 143.885 161.561 143.418 162.066C143.172 162.332 142.838 162.467 142.503 162.467Z" fill="#000072"/>
<path d="M104.497 110.897C137.088 110.897 150.028 96.6552 150.028 96.6552C150.028 96.6552 150.571 97.8815 150.835 99.6244C151.273 102.51 150.048 105.405 147.715 107.158C142.587 111.012 129.529 118.355 104.481 118.355C79.4316 118.355 66.374 111.012 61.2461 107.158C58.9132 105.405 57.6882 102.51 58.1258 99.6244C58.3901 97.8815 58.9331 96.6552 58.9331 96.6552C58.9331 96.6552 71.8733 110.897 104.464 110.897" fill="#751313"/>
<g opacity="0.300003">
<g opacity="0.300003">
<path opacity="0.300003" d="M150.716 98.9568C150.296 100.767 149.246 102.412 147.714 103.563C142.586 107.417 129.529 114.76 104.48 114.76C79.4311 114.76 66.3735 107.417 61.2455 103.563C59.7136 102.412 58.6637 100.767 58.2444 98.9568C58.2011 99.1694 58.1606 99.3922 58.1253 99.6249C57.6876 102.511 58.9127 105.406 61.2455 107.159C66.3735 111.013 79.4311 118.356 104.48 118.356C129.529 118.356 142.586 111.013 147.714 107.159C150.047 105.406 151.272 102.511 150.835 99.6249C150.799 99.3922 150.759 99.1694 150.716 98.9568Z" fill="#000072"/>
</g>
</g>
<path d="M104.479 119.603C79.464 119.603 66.1853 112.43 60.4966 108.155C57.769 106.105 56.388 102.765 56.8927 99.4381C57.1786 97.5513 57.7674 96.207 57.7924 96.1509C57.9631 95.7653 58.3168 95.4921 58.7328 95.425C59.1481 95.3569 59.5704 95.5051 59.854 95.817C59.979 95.9535 72.8973 109.651 104.463 109.651V112.144C77.503 112.144 63.8274 102.631 59.5247 98.9261C59.4626 99.1993 59.4045 99.4964 59.3565 99.8118C58.9899 102.231 60.0002 104.664 61.9936 106.162C67.4338 110.25 80.1877 117.109 104.479 117.109C128.771 117.109 141.525 110.25 146.965 106.162C148.958 104.664 149.969 102.231 149.602 99.8118C149.554 99.4964 149.496 99.1993 149.434 98.9261C145.131 102.631 131.456 112.144 104.496 112.144V109.651C136.169 109.651 148.979 95.9552 149.105 95.817C149.388 95.5051 149.81 95.3576 150.226 95.425C150.642 95.4921 150.996 95.7653 151.166 96.1509C151.191 96.207 151.78 97.5513 152.066 99.4381C152.571 102.765 151.19 106.106 148.462 108.155C142.774 112.43 129.495 119.603 104.479 119.603Z" fill="#000072"/>
<g opacity="0.3">
<path d="M5.96426 16.8507C5.96426 16.8507 6.66284 19.8543 4.34668 23.2077C4.34668 23.2077 8.13067 23.0922 9.95048 25.5771C9.95048 25.5771 9.34385 21.9652 11.9436 19.2202C11.9436 19.2202 8.39063 19.8558 5.96426 16.8507Z" fill="white"/>
</g>
<path d="M58.96 107.195L79.0543 152.954" stroke="#000072" stroke-miterlimit="10"/>
<path d="M129.033 152.954L149.554 107.195" stroke="#000072" stroke-miterlimit="10"/>
<path fill-rule="evenodd" clip-rule="evenodd" d="M103.003 125.882C102.994 125.992 102.927 126.091 102.883 126.199C102.84 126.304 102.8 126.416 102.763 126.527C102.666 126.814 102.575 127.097 102.583 127.469C102.915 127.512 103.333 127.48 103.631 127.438C103.795 127.51 103.9 127.623 104.051 127.704C104.022 127.565 104.158 127.539 104.275 127.499C104.223 127.559 104.143 127.6 104.17 127.714C104.239 127.746 104.25 127.663 104.305 127.653C104.382 127.713 104.48 127.71 104.56 127.653C104.617 127.662 104.601 127.72 104.664 127.725C104.753 127.645 104.626 127.559 104.59 127.499C104.701 127.539 104.827 127.569 104.814 127.694C104.935 127.644 105.082 127.522 105.203 127.438C105.515 127.483 105.914 127.504 106.281 127.479C106.269 126.856 106.048 126.376 105.832 125.892C105.892 125.887 105.892 125.94 105.907 125.963C106.13 126.293 106.328 126.669 106.491 127.069C106.515 127.127 106.555 127.206 106.581 127.284C106.604 127.353 106.653 127.471 106.641 127.51C106.615 127.594 106.412 127.622 106.371 127.694C106.247 127.593 105.888 127.622 105.548 127.612C105.452 127.609 105.323 127.59 105.263 127.602C105.133 127.627 105.076 127.758 105.009 127.827C105.193 127.836 105.339 127.713 105.503 127.704C105.607 127.698 105.759 127.752 105.892 127.776C106.278 127.846 106.709 127.905 107.06 127.981C107.081 127.157 106.772 126.471 106.356 125.912C106.769 126.302 107.048 126.758 107.255 127.295C107.29 127.387 107.321 127.476 107.345 127.571C107.377 127.705 107.379 127.871 107.479 127.97C107.355 128.063 107.206 128.138 107.075 128.226C106.707 128.076 105.996 127.86 105.398 127.899C105.255 127.908 105.128 127.957 105.024 128.022C105.207 128.072 105.333 128.076 105.578 128.073C105.639 128.072 105.727 128.055 105.772 128.063C105.824 128.072 105.908 128.145 105.982 128.196C106.414 128.491 106.801 128.708 107.315 128.943C107.475 129.017 107.565 129.091 107.749 128.994C107.779 129.966 107.402 130.683 106.94 131.339C106.886 131.415 106.852 131.504 106.761 131.564C107.108 131.004 107.374 130.338 107.374 129.558C107.374 129.476 107.397 129.374 107.374 129.302C107.342 129.199 107.106 129.091 106.97 129.005C106.583 128.76 106.276 128.589 105.847 128.359C105.763 128.315 105.692 128.254 105.623 128.237C105.55 128.219 105.435 128.215 105.353 128.206C105.251 128.195 105.153 128.192 105.069 128.185C105.234 128.307 105.497 128.458 105.727 128.575C105.77 128.6 105.814 128.565 105.862 128.564C105.917 129.706 105.793 130.824 105.323 131.657C105.211 131.855 105.087 132.051 104.889 132.199C105.528 131.411 105.576 130.058 105.443 128.871C105.579 128.791 105.52 128.724 105.398 128.626C105.265 128.518 105.029 128.361 104.874 128.308C104.863 128.362 104.89 128.414 104.919 128.462C104.948 128.51 105.013 128.552 105.024 128.595C105.046 128.687 104.992 128.888 104.964 128.994C104.871 129.348 104.676 129.735 104.5 129.998C104.438 129.992 104.481 129.915 104.44 129.895C104.373 129.898 104.414 129.973 104.38 129.998C104.174 129.757 103.998 129.359 103.901 128.994C103.866 128.864 103.812 128.707 103.841 128.595C103.864 128.506 104.004 128.425 103.991 128.319C103.854 128.34 103.726 128.433 103.616 128.513C103.507 128.593 103.394 128.678 103.317 128.769C103.326 128.814 103.39 128.821 103.407 128.861C103.309 130.061 103.312 131.412 103.976 132.189C103.906 132.182 103.873 132.122 103.841 132.087C103.223 131.41 103.057 130.368 102.988 129.291C102.972 129.053 102.957 128.821 103.003 128.585C103.015 128.535 103.092 128.609 103.137 128.575C103.374 128.453 103.586 128.315 103.811 128.185C103.615 128.206 103.403 128.199 103.227 128.247C103.075 128.288 102.907 128.402 102.763 128.482C102.323 128.727 101.86 128.993 101.49 129.271C101.415 130.185 101.721 130.921 102.089 131.564C101.558 130.856 101.065 130.068 101.116 128.994C101.319 129.126 101.627 128.912 101.79 128.831C102.243 128.604 102.727 128.311 103.077 128.063C103.331 128.088 103.629 128.067 103.841 128.032C103.577 127.801 102.898 127.917 102.493 128.001C102.222 128.058 101.968 128.139 101.805 128.226C101.649 128.155 101.53 128.059 101.386 127.981C101.492 127.799 101.514 127.493 101.595 127.284C101.793 126.776 102.102 126.326 102.478 125.912C102.469 125.991 102.389 126.059 102.344 126.127C102.016 126.626 101.8 127.245 101.79 127.97C102.136 127.917 102.549 127.851 102.958 127.776C103.091 127.751 103.229 127.702 103.332 127.704C103.498 127.708 103.655 127.826 103.841 127.827C103.797 127.731 103.712 127.662 103.616 127.602C103.308 127.626 102.964 127.588 102.688 127.622C102.66 127.626 102.623 127.637 102.583 127.653C102.587 127.652 102.494 127.694 102.508 127.694C102.446 127.694 102.294 127.546 102.224 127.53C102.368 126.901 102.693 126.397 103.003 125.882Z" fill="#000072"/>
<path fill-rule="evenodd" clip-rule="evenodd" d="M104.48 119.602V137.282V119.602Z" fill="#000072"/>
<path d="M104.48 119.602V137.282" stroke="#000072" stroke-miterlimit="10"/>
<path d="M98.966 119.483C98.966 119.483 99.9375 133.966 98.5146 136.53" stroke="#000072" stroke-miterlimit="10"/>
<path d="M94.5991 119.204C94.5991 119.204 96.79 125.905 93.624 134.957" stroke="#000072" stroke-miterlimit="10"/>
<path d="M109.518 119.603C109.518 119.603 108.502 132.436 109.971 136.806" stroke="#000072" stroke-miterlimit="10"/>
<path d="M114.7 119.204C114.7 119.204 112.377 131.93 115.826 134.957" stroke="#000072" stroke-miterlimit="10"/>
<path d="M90.0596 121.749C90.0596 121.749 92.2472 119.66 95.1203 121.749C95.1203 121.749 96.6178 119.676 99.1081 122.034C99.1081 122.034 100.466 119.452 104.464 121.749C104.464 121.749 106.151 119.591 109.178 121.749C109.178 121.749 111.556 119.353 114.342 121.63C114.342 121.63 116.825 118.926 118.975 121.341" stroke="#000072" stroke-miterlimit="10"/>
<path d="M104.163 125.066C104.085 125.01 104.007 124.958 103.93 124.909C101.207 123.163 99.2317 125.114 99.2317 125.114C97.2119 123.017 95.3389 125.114 95.3389 125.114C92.1992 121.45 90.5039 125.114 90.5039 125.114" stroke="#000072" stroke-miterlimit="10"/>
<path d="M104.084 125.106C104.084 125.106 106.566 123.115 109.177 125.106C109.177 125.106 111.714 122.642 113.935 125.216C113.935 125.216 117.231 122.678 118.461 125.165" stroke="#000072" stroke-miterlimit="10"/>
<path d="M90.5039 131.234C90.5039 131.234 92.5184 127.914 94.6385 131.516C94.6385 131.516 98.4407 128.888 99.2498 132.558C99.2498 132.558 102.398 130.956 104.599 133.592C104.599 133.592 106.93 130.864 109.63 132.945C109.63 132.945 111.433 128.773 114.485 131.991C114.485 131.991 116.366 128.512 118.462 130.497" stroke="#000072" stroke-miterlimit="10"/>
<path d="M90.2979 133.22C90.2979 133.22 92.9212 130.558 94.0684 133.593C94.0684 133.593 97.8471 131.884 98.9021 134.957C98.9021 134.957 102.807 132.909 104.432 136.187C104.432 136.187 106.743 134.009 109.52 135.488C109.52 135.488 112.072 131.647 115.027 133.915C115.027 133.915 117.129 130.322 118.387 132.559" stroke="#000072" stroke-miterlimit="10"/>
<path d="M67.3018 162.136C67.3018 162.136 78.9289 149.91 93.6257 151.09L96.9665 161.355C96.9665 161.355 93.3554 176.596 70.5901 171.46L67.3018 162.136Z" fill="#000072"/>
<path d="M67.3018 162.136C67.3018 162.136 78.9289 149.909 93.6257 151.09L96.9665 161.355C96.9665 161.355 93.3554 176.596 70.5901 171.46L67.3018 162.136Z" stroke="#000072" stroke-miterlimit="10"/>
<path d="M111.457 163.878L114.881 149.315L131.014 154.222L140.627 159.682V163.878L138.37 171.461C138.37 171.461 122.218 176.78 111.457 163.878Z" fill="#000072"/>
<path d="M111.457 163.878L114.881 149.315L131.014 154.222L140.627 159.682V163.878L138.37 171.461C138.37 171.461 122.218 176.78 111.457 163.878Z" stroke="#000072" stroke-miterlimit="10"/>
<path d="M29.8096 144.482L42.23 176.698" stroke="#000072" stroke-miterlimit="10"/>
<path d="M26.5869 148.55C26.5869 148.55 28.7331 163.462 38.1015 176.456" stroke="#000072" stroke-miterlimit="10"/>
<path d="M34.8525 143.243C34.8525 143.243 44.5536 159.718 46.0524 176.959" stroke="#000072" stroke-miterlimit="10"/>
<path d="M41.0771 144.482C41.0771 144.482 46.9608 156.215 50.2779 176.698" stroke="#000072" stroke-miterlimit="10"/>
<path d="M25.2686 155.508C25.2686 155.508 25.2931 152.208 27.6378 153.488C27.6378 153.488 28.5103 147.717 32.343 151.381C32.343 151.381 32.4882 145.523 37.8444 149.035C37.8444 149.035 39.3721 144.736 42.5804 148.549C42.5804 148.549 44.1716 147.67 45.1955 149.653" stroke="#000072" stroke-miterlimit="10"/>
<path d="M26.959 150.566C26.959 150.566 27.7813 146.299 31.0548 147.713C31.0548 147.713 31.7029 144.205 36.0197 145.372C36.0197 145.372 36.6549 143.078 41.7771 146.01" stroke="#000072" stroke-miterlimit="10"/>
<path d="M25.7256 157.264C25.7256 157.264 25.9063 153.957 28.407 156.258C28.407 156.258 29.1948 150.533 33.5637 154.222C33.5637 154.222 33.6806 148.616 38.7644 151.784C38.7644 151.784 40.6349 148.654 43.8948 151.381C43.8948 151.381 44.477 149.752 46.1037 151.381" stroke="#000072" stroke-miterlimit="10"/>
<path d="M25.7256 160.101C25.7256 160.101 26.7405 156.921 29.5173 159.681C29.5173 159.681 31.2166 154.489 34.8519 158.003C34.8519 158.003 36.3164 151.073 40.7757 155.832C40.7757 155.832 41.4692 151.308 45.0158 154.655C45.0158 154.655 45.285 151.877 47.1548 154.108" stroke="#000072" stroke-miterlimit="10"/>
<path d="M26.5869 162.503C26.5869 162.503 27.5312 159.884 30.2827 161.764C30.2827 161.764 33.2742 157.63 36.0196 160.591C36.0196 160.591 38.9657 156.141 41.777 159.523C41.777 159.523 43.2392 155.348 46.1304 158.254C46.1304 158.254 47.2018 156.698 48.0672 158.044" stroke="#000072" stroke-miterlimit="10"/>
<path d="M27.582 165.585C27.582 165.585 29.2451 162.732 31.3714 164.436C31.3714 164.436 33.2346 161.184 37.2946 163.893C37.2946 163.893 39.2267 159.491 43.2023 162.815C43.2023 162.815 44.64 159.07 47.1568 162.466C47.1568 162.466 47.1663 158.831 48.9284 160.59" stroke="#000072" stroke-miterlimit="10"/>
<path d="M28.8037 169.183V168.267C28.8037 168.267 29.9178 164.93 32.5855 167.107C32.5855 167.107 35.3399 163.949 38.2544 166.386C38.2544 166.386 41.2662 162.442 43.9906 165.586C43.9906 165.586 45.631 162.139 48.0679 165.573" stroke="#000072" stroke-miterlimit="10"/>
<path d="M30.8799 170.302C30.8799 170.302 30.9831 168.526 33.6259 169.183C33.6259 169.183 36.4587 167.036 39.2753 169.037C39.2753 169.037 41.2626 165.511 44.6351 168.184C44.6351 168.184 46.9704 165.436 48.5684 167.763" stroke="#000072" stroke-miterlimit="10"/>
<path d="M32.3457 172.518C32.3457 172.518 33.3666 170.964 35.2347 172.066C35.2347 172.066 37.6601 169.712 40.2931 171.671C40.2931 171.671 42.1247 168.894 45.2059 170.892C45.2059 170.892 47.1596 168.36 49.1099 170.302" stroke="#000072" stroke-miterlimit="10"/>
<path d="M34.3701 174.092C34.3701 174.092 34.6905 172.447 36.4429 174.02C36.4429 174.02 38.4898 172.705 41.078 174.092C41.078 174.092 43.9008 172.322 45.6784 173.715C45.6784 173.715 47.9894 171.979 49.5251 173.636" stroke="#000072" stroke-miterlimit="10"/>
<path d="M37.3281 175.242C37.3281 175.242 38.6894 173.812 41.778 175.524C41.778 175.524 43.4732 174.489 45.026 174.854C45.2477 174.906 45.4667 174.987 45.6773 175.104" stroke="#000072" stroke-miterlimit="10"/>
<path d="M45.9092 175.533C45.9092 175.533 47.4796 174.163 50.1473 175.107" stroke="#000072" stroke-miterlimit="10"/>
<path d="M48.928 160.109C48.4594 161.174 50.2777 177.938 50.2777 177.938H72.9574L72.4745 176.698L67.3015 166.826L64.0636 157.554C56.7262 156.513 49.524 139.324 49.524 139.324L44.417 144.757L45.6773 147.712L48.0683 153.24L48.928 160.109Z" fill="#000072"/>
<path d="M178.215 143.703L167.113 176.698" stroke="#000072" stroke-miterlimit="10"/>
<path d="M181.164 147.731C181.164 147.731 179.19 168.786 169.925 177.204" stroke="#000072" stroke-miterlimit="10"/>
<path d="M173.939 143.502C173.939 143.502 166.42 161.567 162.85 176.899" stroke="#000072" stroke-miterlimit="10"/>
<path d="M167.689 145.086C167.689 145.086 162.217 155.351 159.378 178.809" stroke="#000072" stroke-miterlimit="10"/>
<path d="M183.011 153.293C183.011 153.293 182.412 150.374 180.515 152.339C180.515 152.339 179.723 147.122 175.981 150.343C175.981 150.343 174.925 145.896 171.641 149.314C171.641 149.314 169.085 145.064 165.902 149.314C165.902 149.314 165.244 148.238 163.704 149.653" stroke="#000072" stroke-miterlimit="10"/>
<path d="M183.201 156.247C183.201 156.247 182.499 153.383 179.911 155.508C179.911 155.508 178.406 151.92 174.675 154.222C174.675 154.222 173.8 150.587 169.923 152.954C169.923 152.954 168.777 150.187 164.916 152.154C164.916 152.154 164.012 150.404 162.395 152.308" stroke="#000072" stroke-miterlimit="10"/>
<path d="M183.203 159.681C183.203 159.681 181.725 156.597 179.2 158.594C179.2 158.594 176.84 155.25 173.43 157.921C173.43 157.921 172.14 154.661 168.862 156.886C168.862 156.886 167.184 153.292 163.703 155.832C163.703 155.832 163.065 153.937 160.534 155.508" stroke="#000072" stroke-miterlimit="10"/>
<path d="M182.593 162.467C182.593 162.467 181.722 159.418 178.275 161.947C178.275 161.947 175.926 158.032 172.419 160.93C172.419 160.93 170.903 156.942 167.689 160.2C167.689 160.2 166.676 156.955 162.849 159.421C162.849 159.421 162.289 156.882 160.656 159.061C159.022 161.239 160.224 159.02 160.224 159.02" stroke="#000072" stroke-miterlimit="10"/>
<path d="M181.667 165.493C181.667 165.493 180.42 162.089 177.346 164.762C177.346 164.762 175.423 161.982 171.474 163.738C171.474 163.738 169.086 160.87 166.318 163.736C166.318 163.736 164.433 160.821 161.958 163.25C161.958 163.25 160.994 158.466 158.667 163.089" stroke="#000072" stroke-miterlimit="10"/>
<path d="M179.781 167.854C179.781 167.854 179.705 164.744 176.389 167.245C176.389 167.245 174.203 164.194 170.357 167.063C170.357 167.063 168.277 163.923 165.464 167.241C165.464 167.241 163.547 164.198 161.17 167.144C161.17 167.144 161.095 162.072 157.887 166.048" stroke="#000072" stroke-miterlimit="10"/>
<path d="M178.216 170.485C178.216 170.485 177.722 168.789 175.074 170.099C175.074 170.099 172.196 167.938 169.353 170.044C169.353 170.044 167.711 167.735 164.707 169.804C164.707 169.804 162.235 167.648 160.536 169.714C160.536 169.714 160.686 165.857 157.081 168.819" stroke="#000072" stroke-miterlimit="10"/>
<path d="M176.307 172.546C176.307 172.546 175.9 170.631 173.7 172.546C173.7 172.546 171.202 170.866 168.393 172.896C168.393 172.896 165.629 171.144 163.85 172.896C163.85 172.896 161.945 170.312 159.929 172.896C159.929 172.896 159.312 169.481 157.364 172.295" stroke="#000072" stroke-miterlimit="10"/>
<path d="M174.626 173.531C174.626 173.531 173.714 172.696 172.799 173.905C172.799 173.905 169.146 172.832 167.689 174.987C167.689 174.987 166.12 173.277 163.31 174.987C163.31 174.987 161.937 172.462 159.878 174.987C159.878 174.987 158.744 171.63 156.618 174.987" stroke="#000072" stroke-miterlimit="10"/>
<path d="M145.645 157.284L152.934 150.256L158.667 140.528L159.377 138.369L164.19 143.703L164.567 146.353L161.958 149.315L160.535 152.954L159.928 157.284V159.609L159.879 161.16C159.879 161.16 157.389 172.898 158.667 177.518L136.467 178.068L135.743 176.698L139.369 169.653L143.349 160.305L145.645 157.284Z" fill="#000072"/>
<path d="M141.571 111.717C141.571 111.717 123.805 146.204 121.81 155.833" stroke="#000072" stroke-miterlimit="10"/>
<path d="M135.903 114.365C135.903 114.365 118.536 149.139 120.072 152.081" stroke="#000072" stroke-miterlimit="10"/>
<path d="M152.485 112.465C152.485 112.465 139.281 148.44 133.14 156.847" stroke="#000072" stroke-miterlimit="10"/>
<path d="M128.66 119.603C128.66 119.603 132.678 115.349 133.671 118.9C133.671 118.9 136.369 114.926 138.567 117.648C138.567 117.648 143.802 113.431 144.641 118.149C144.641 118.149 149.4 114.397 149.797 119.603C149.797 119.603 151.525 119.114 151.483 123.487C151.483 123.487 153.036 126.884 152.585 128.204" stroke="#000072" stroke-miterlimit="10"/>
<path d="M135.279 115.621C135.279 115.621 138.425 112.779 140.221 114.365C140.221 114.365 144.454 110.072 146.662 113.643C146.662 113.643 150.848 112.903 150.922 116.646C150.922 116.646 152.617 118.774 152.485 119.602C152.485 119.602 150.545 132.643 146.834 140.393C146.834 140.393 141.913 157.28 136.903 158.632" stroke="#000072" stroke-miterlimit="10"/>
<path d="M128.059 122.222C128.059 122.222 130.574 119.081 132.066 122.222C132.066 122.222 135.754 118.665 135.904 122.222C135.904 122.222 141.726 119.406 142.494 122.939C142.494 122.939 146.793 119.874 147.662 125.115C147.662 125.115 151.795 123.569 150.484 128.902C150.484 128.902 152.777 128.302 152.345 131.655" stroke="#000072" stroke-miterlimit="10"/>
<path d="M125.792 126.148C125.792 126.148 129.447 122.732 129.907 126.752C129.907 126.752 133.447 123.305 133.64 127.662C133.64 127.662 139.964 124.415 139.82 128.901C139.82 128.901 144.237 127.493 145.03 131.715C145.03 131.715 148.846 130.442 149.243 134.005C149.243 134.005 152.057 133.83 151.794 136.104" stroke="#000072" stroke-miterlimit="10"/>
<path d="M123.851 130.498C123.851 130.498 126.667 125.794 128.379 130.47C128.379 130.47 130.657 128.414 131.691 131.327C131.691 131.327 137.231 129.478 137.716 133.592C137.716 133.592 141.465 131.236 143.334 134.957C143.334 134.957 147.682 134.239 148.315 136.805C148.315 136.805 150.298 136.188 151.009 138.369" stroke="#000072" stroke-miterlimit="10"/>
<path d="M122.74 133.223C122.74 133.223 125.347 131.86 126.123 134.957C126.123 134.957 128.823 132.595 129.907 135.429C129.907 135.429 134.326 133.738 135.743 137.283C135.743 137.283 140.531 135.467 142.087 138.811C142.087 138.811 145.334 137.947 147.105 140.15C147.105 140.15 149.259 139.341 149.553 141.541" stroke="#000072" stroke-miterlimit="10"/>
<path d="M120.874 136.861C120.874 136.861 124.487 134.175 124.481 138.68C124.481 138.68 127.62 136.458 128.058 139.232C128.058 139.232 132.944 137.815 134.152 141.541C134.152 141.541 138.22 138.575 140.228 143.101C140.228 143.101 144.414 140.86 145.363 144.554" stroke="#000072" stroke-miterlimit="10"/>
<path d="M119.54 141.174C119.54 141.174 122.332 138.162 123.265 141.541C123.265 141.541 125.835 139.364 126.784 142.454C126.784 142.454 131.281 141.206 132.8 144.554C132.8 144.554 136.836 142.821 138.801 146.263C138.801 146.263 142.291 144.038 144.093 147.426" stroke="#000072" stroke-miterlimit="10"/>
<path d="M118.285 144.018C118.285 144.018 121.147 142.247 122.048 144.554C122.048 144.554 124.554 142.821 125.519 145.396C125.519 145.396 130.435 144.384 131.198 147.426C131.198 147.426 135.685 146.142 137.428 149.171C137.428 149.171 140.837 147.963 142.811 150.36C142.811 150.36 143.61 149.881 143.609 152.081" stroke="#000072" stroke-miterlimit="10"/>
<path d="M117.194 146.696C117.194 146.696 120.252 145.127 120.872 147.138C120.872 147.138 124.154 145.823 124.418 148.074C124.418 148.074 129.983 146.814 130.313 150.097C130.313 150.097 135.24 148.621 135.968 152.081C135.968 152.081 140.239 150.323 141.183 154.222C141.183 154.222 142.849 153.432 143.332 155.833" stroke="#000072" stroke-miterlimit="10"/>
<path d="M64.5742 109.206C64.5742 109.206 80.4114 135.248 84.1123 152.081" stroke="#000072" stroke-miterlimit="10"/>
<path d="M73.6582 114.234C73.6582 114.234 85.4899 135.916 89.4181 150.266" stroke="#000072" stroke-miterlimit="10"/>
<path d="M56.9541 113.339C56.9541 113.339 70.7466 152.457 75.2632 155.508" stroke="#000072" stroke-miterlimit="10"/>
<path d="M56.4033 120.642C56.4033 120.642 67.5586 155.501 70.8862 157.284" stroke="#000072" stroke-miterlimit="10"/>
<path d="M57.9512 114.914C57.9512 114.914 58.2589 110.822 61.5915 113.192C61.5915 113.192 62.9193 110.26 66.6946 112.818C66.6946 112.818 67.697 111.249 70.8859 112.527" stroke="#000072" stroke-miterlimit="10"/>
<path d="M57.1514 122.938C57.1514 122.938 57.4501 120.059 59.8018 121.185C59.8018 121.185 60.5297 117.195 64.5767 119.984C64.5767 119.984 65.3277 115.787 69.7949 118.355C69.7949 118.355 72.6022 114.677 75.8354 118.355C75.8354 118.355 78.2012 116.157 79.929 118.355" stroke="#000072" stroke-miterlimit="10"/>
<path d="M56.4033 119.482C56.4033 119.482 57.4407 117.73 58.6868 118.356C58.6868 118.356 60.0302 114.546 62.9315 116.243C62.9315 116.243 64.77 113.481 68.0877 115.273C68.0877 115.273 71.542 113.682 73.6592 114.668" stroke="#000072" stroke-miterlimit="10"/>
<path d="M56.0254 128.398C56.0254 128.398 56.4242 126.461 58.6871 127.576C58.6871 127.576 58.9989 124.646 61.592 126.16C61.592 126.16 62.2572 122.139 66.8722 124.629C66.8722 124.629 67.3381 119.936 72.2361 122.939C72.2361 122.939 74.3902 119.341 77.6528 121.935C77.6528 121.935 78.0165 119.886 80.5164 121.629" stroke="#000072" stroke-miterlimit="10"/>
<path d="M56.4033 132.925C56.4033 132.925 57.4357 129.718 60.0708 131.656C60.0708 131.656 60.6157 128.236 63.3245 130.498C63.3245 130.498 65.3314 127.355 68.2705 128.902C68.2705 128.902 70.9149 124.638 74.3436 127.081C74.3436 127.081 76.8334 123.797 79.5213 125.736C79.5213 125.736 79.617 124.483 82.1609 125.115" stroke="#000072" stroke-miterlimit="10"/>
<path d="M57.167 136.104C57.167 136.104 57.8763 132.808 61.2158 134.957C61.2158 134.957 62.7665 132.702 64.7868 134.22C64.7868 134.22 66.5248 130.406 70.1155 132.6C70.1155 132.6 72.5259 129.127 76.3974 131.314C76.3974 131.314 78.1666 128.414 81.5748 130.075C81.5748 130.075 81.2855 128.371 83.8738 129.456" stroke="#000072" stroke-miterlimit="10"/>
<path d="M58.4775 139.325C58.4775 139.325 59.255 136.432 61.9505 137.884C61.9505 137.884 63.5565 134.857 65.9961 137.139C65.9961 137.139 67.0716 133.29 71.6358 135.921C71.6358 135.921 73.8137 132.561 77.8261 134.205C77.8261 134.205 79.4191 131.028 83.011 132.971C83.011 132.971 83.7576 131.394 85.571 132.655" stroke="#000072" stroke-miterlimit="10"/>
<path d="M58.6865 142.197C58.6865 142.197 59.7804 138.493 62.7682 139.325C62.7682 139.325 65.4528 137.879 66.806 139.203C66.806 139.203 70.6657 136.303 72.6476 138.369C72.6476 138.369 76.6358 135.216 79.0527 137.224C79.0527 137.224 81.7761 134.936 84.442 136.53C84.442 136.53 85.9027 134.918 87.707 136.105" stroke="#000072" stroke-miterlimit="10"/>
<path d="M89.4191 140.528C89.4191 140.528 86.6413 136.857 85.9966 140.311C85.9966 140.311 81.2548 137.469 80.8077 141.541C80.8077 141.541 76.1498 138.042 74.5116 142.613C74.5116 142.613 69.7487 139.994 68.5381 143.682C68.5381 143.682 65.5005 140.504 65.0312 144.555C65.0312 144.555 63.4453 143.949 63.168 145.521" stroke="#000072" stroke-miterlimit="10"/>
<path d="M90.6728 143.682C90.6728 143.682 88.1045 140.845 87.4213 144.061C87.4213 144.061 83.6462 141.577 82.0494 144.936C82.0494 144.936 77.9782 142.878 76.3962 146.696C76.3962 146.696 72.0412 144.267 70.8858 148.454C70.8858 148.454 67.8949 147.243 66.8715 150.265C66.8715 150.265 65.3338 149.858 64.5742 152.081" stroke="#000072" stroke-miterlimit="10"/>
<path d="M91.27 146.113C91.27 146.113 89.3318 142.61 88.4265 146.972C88.4265 146.972 86.0212 145.476 83.2048 148.549C83.2048 148.549 79.6024 147.316 77.625 149.701C77.625 149.701 74.7718 148.916 72.7015 151.009C72.5878 151.124 72.4765 151.248 72.3682 151.381" stroke="#000072" stroke-miterlimit="10"/>
<path d="M72.4752 151.248C72.4752 151.248 69.8144 151.006 68.4322 153.488C68.4322 153.488 66.5122 153.57 65.6257 155.833C64.7392 158.096 65.2097 155.508 65.2097 155.508" stroke="#000072" stroke-miterlimit="10"/>
<path fill-rule="evenodd" clip-rule="evenodd" d="M104.242 17.1936C134.805 17.1936 158.316 49.0145 158.316 75.585C158.316 102.156 115.222 112.893 104.242 113.417C93.2615 113.941 47.9277 101.377 47.9277 74.8058C47.9277 48.2348 73.6794 17.1936 104.242 17.1936Z" fill="#FF850B"/>
<path d="M104.243 18.4858C73.7639 18.4858 49.2203 49.2962 49.2203 74.806C49.2203 81.4394 52.234 87.6775 58.1781 93.3468C71.4182 105.975 95.5749 112.14 103.562 112.14C103.781 112.14 103.987 112.136 104.182 112.126C109.969 111.85 123.3 108.871 134.82 103.113C144.95 98.0494 157.025 89.1634 157.025 75.585C157.025 49.18 133.969 18.4858 104.243 18.4858ZM103.595 114.724C95.0266 114.724 70.3339 108.512 56.3956 95.2173C49.9203 89.041 46.6367 82.1737 46.6367 74.806C46.6367 61.5061 53.007 46.6843 63.6771 35.1578C75.0055 22.9203 89.7912 15.9016 104.243 15.9016C118.785 15.9016 132.805 22.8912 143.72 35.5828C153.669 47.1508 159.609 62.1048 159.609 75.585C159.609 87.3779 151.436 97.6963 135.975 105.425C124.118 111.351 110.317 114.421 104.304 114.708C104.083 114.718 103.845 114.724 103.595 114.724Z" fill="#000072"/>
<g opacity="0.5">
<g opacity="0.5">
<path opacity="0.5" fill-rule="evenodd" clip-rule="evenodd" d="M104.242 17.1947C123.026 17.1947 139.144 29.2163 148.779 44.6495C148.879 45.1483 148.976 45.649 149.06 46.1538C140.264 33.2548 126.548 24.7491 111.358 22.4546C112.332 22.8227 112.897 23.2598 112.897 23.729C112.897 25.0405 108.481 26.1036 103.034 26.1036C97.5881 26.1036 93.1725 25.0405 93.1725 23.729C93.1725 23.2598 93.7362 22.8227 94.7107 22.4546C79.5203 24.7496 65.8059 33.2558 57.0093 46.1538L57.0579 45.8819C67.2011 29.8322 84.7418 17.1947 104.242 17.1947Z" fill="white"/>
</g>
</g>
<path fill-rule="evenodd" clip-rule="evenodd" d="M156.864 83.7492C149.265 104.384 114.019 112.951 104.242 113.417C94.5641 113.879 58.2096 104.172 49.7158 83.6736C50.367 72.5083 56.0375 69.4567 66.5242 74.913C70.8366 77.1563 75.2237 79.4963 78.6997 77.7146C98.5416 67.5413 110.657 69.4592 124.238 77.7146C130.589 81.5754 136.787 75.8163 140.676 74.0606C153.06 68.4667 158.743 72.3791 156.864 83.7492Z" fill="white"/>
<g opacity="0.300003">
<g opacity="0.300003">
<path opacity="0.300003" fill-rule="evenodd" clip-rule="evenodd" d="M158.081 70.944C158.234 72.5033 158.316 74.0526 158.316 75.584C158.316 76.5629 158.251 77.5168 158.138 78.4533L158.149 78.1733C156.64 95.9055 120.944 109.445 101.741 110.538C85.7108 111.451 53.6949 94.1894 48.3116 78.1733C48.3216 78.5054 48.3387 78.8368 48.3537 79.1679C48.0794 77.7572 47.9277 76.3045 47.9277 74.8048C47.9277 73.611 47.9818 72.4081 48.0834 71.1988L48.167 70.9399C60.6809 88.9376 81.2096 99.6687 103.126 99.6687C125.04 99.6687 145.567 88.9381 158.081 70.944Z" fill="#000072"/>
</g>
</g>
<path fill-rule="evenodd" clip-rule="evenodd" d="M84.469 62.4553C82.7601 61.6931 81.0105 60.4157 79.223 58.6255C76.1239 58.7662 73.6445 62.0777 73.6445 66.1418C73.6445 70.2955 76.2335 73.6631 79.4272 73.6631C82.6214 73.6631 85.2104 70.2955 85.2104 66.1418C85.2104 64.8023 84.9411 63.5449 84.469 62.4553Z" fill="#000072"/>
<path d="M133.001 55.3726C130.915 58.1443 128.864 60.2875 126.849 61.8023C123.884 64.0306 120.675 64.4207 120.319 61.9665C121.914 61.7838 123.576 61.0422 125.305 59.7432C129.565 56.5404 130.897 54.4783 133.001 55.3726Z" fill="#000072"/>
<path fill-rule="evenodd" clip-rule="evenodd" d="M123.279 62.4543C124.988 61.6921 126.738 60.4147 128.526 58.6245C131.625 58.7652 134.104 62.0767 134.104 66.1408C134.104 70.2946 131.516 73.6621 128.321 73.6621C125.127 73.6621 122.538 70.2946 122.538 66.1408C122.538 64.8013 122.807 63.5439 123.279 62.4543Z" fill="#000072"/>
<path fill-rule="evenodd" clip-rule="evenodd" d="M125.93 64.2244C124.992 64.2244 124.232 65.0346 124.232 66.0335C124.232 67.0326 124.992 67.8428 125.93 67.8428C126.868 67.8428 127.628 67.0326 127.628 66.0335C127.628 65.0346 126.868 64.2244 125.93 64.2244Z" fill="white"/>
<path fill-rule="evenodd" clip-rule="evenodd" d="M103.123 67.4607C107.259 67.4607 110.611 69.6966 110.611 72.4543C110.611 75.2124 107.259 77.4482 103.123 77.4482C98.9872 77.4482 95.6348 75.2124 95.6348 72.4543C95.6348 69.6966 98.9872 67.4607 103.123 67.4607Z" fill="#000072"/>
<path d="M110.283 83.5674C107.647 83.5674 105.097 82.5869 103.141 80.8348C100.956 82.8252 97.9443 83.7511 94.984 83.2803C91.5452 82.7337 88.6289 80.376 87.3725 77.1273C87.1152 76.4616 87.4459 75.7134 88.1114 75.4559C88.7762 75.1986 89.5243 75.5295 89.782 76.1949C90.7073 78.5884 92.8561 80.3255 95.3895 80.7281C97.9243 81.131 100.505 80.1462 102.127 78.1586C102.369 77.8617 102.73 77.6877 103.113 77.6835C103.499 77.684 103.861 77.8455 104.11 78.1369C105.802 80.1197 108.357 81.173 110.957 80.9549C113.553 80.737 115.901 79.2713 117.238 77.0342C117.604 76.4214 118.399 76.2216 119.01 76.5882C119.622 76.9543 119.822 77.7478 119.456 78.3602C117.693 81.3099 114.597 83.2427 111.173 83.53C110.875 83.5551 110.579 83.5674 110.283 83.5674Z" fill="#000072"/>
<path fill-rule="evenodd" clip-rule="evenodd" d="M103.128 78.9755C105.821 81.5359 108.466 82.625 111.065 82.2425C111.708 99.1184 94.6052 98.431 95.1874 82.0042C98.3736 82.4087 101.02 81.3997 103.128 78.9755Z" fill="#000072"/>
<path d="M96.4732 83.3846C96.6013 87.6846 98.1259 91.0652 100.665 92.5692C102.343 93.5625 104.239 93.5765 105.867 92.6065C108.298 91.158 109.696 87.9161 109.786 83.6058C107.588 83.5354 105.38 82.5839 103.193 80.7646C101.311 82.5071 99.079 83.3848 96.5318 83.3848C96.5126 83.3848 96.4929 83.3848 96.4732 83.3846ZM103.32 95.9033C101.963 95.9035 100.599 95.533 99.3493 94.7929C95.6718 92.6149 93.6842 87.9372 93.8962 81.9593L93.9465 80.5451L95.3496 80.7234C98.108 81.0729 100.33 80.224 102.153 78.1284L103.039 77.1097L104.017 78.04C106.429 80.333 108.675 81.2903 110.877 80.9649L112.301 80.7554L112.356 82.1941C112.582 88.1312 110.698 92.7356 107.189 94.8269C105.984 95.5446 104.656 95.9033 103.32 95.9033Z" fill="#000072"/>
<path fill-rule="evenodd" clip-rule="evenodd" d="M103.27 88.3084C100.971 88.3084 98.8105 89.4096 97.46 91.2698C100.569 95.699 106.082 95.7716 109.052 91.2323C107.7 89.3946 105.553 88.3084 103.27 88.3084Z" fill="#FF0066"/>
<path d="M99.1318 91.2994C100.329 92.6199 101.835 93.3359 103.398 93.3213C104.909 93.2967 106.302 92.5835 107.399 91.2923C106.306 90.2201 104.819 89.6003 103.269 89.6003C101.713 89.6003 100.225 90.2223 99.1318 91.2994ZM103.318 95.9062C100.658 95.9062 98.1429 94.4924 96.4021 92.0122L95.8721 91.2571L96.4141 90.5105C98.0025 88.3224 100.565 87.0161 103.269 87.0161C105.951 87.0161 108.502 88.3057 110.092 90.4661L110.623 91.1889L110.132 91.9399C108.511 94.417 106.072 95.8623 103.44 95.9052C103.4 95.9059 103.359 95.9062 103.318 95.9062Z" fill="#000072"/>
<path fill-rule="evenodd" clip-rule="evenodd" d="M152.027 48.5479C143.731 34.8352 133.785 25.5512 122.188 20.6974C144.937 -11.1886 154.883 -1.90512 152.027 48.5479Z" fill="#FF850B"/>
<path d="M124.171 20.1547C134.352 24.8028 143.339 32.9505 150.942 44.4212C152.33 13.3334 148.114 5.06 144.237 3.69579C141.277 2.65542 135.41 4.72428 124.171 20.1547ZM153.08 52.7852L150.921 49.2165C142.809 35.8065 132.973 26.6122 121.689 21.8891L120.196 21.2642L121.136 19.9464C131.542 5.36097 139.376 -0.754356 145.094 1.25798C152.387 3.82409 155 18.8738 153.316 48.6206L153.08 52.7852Z" fill="#000072"/>
<path fill-rule="evenodd" clip-rule="evenodd" d="M120.214 50.2156C122.127 49.4309 124.056 49.7153 124.522 50.851C124.987 51.9868 123.813 53.5441 121.901 54.3293C119.987 55.1139 118.059 54.829 117.593 53.6933C117.128 52.5576 118.301 51.0003 120.214 50.2156Z" fill="white"/>
<path fill-rule="evenodd" clip-rule="evenodd" d="M86.8811 50.1398C84.9679 49.3546 83.0391 49.6395 82.5736 50.7752C82.108 51.911 83.2815 53.4683 85.1946 54.2529C87.1073 55.0376 89.0361 54.7532 89.5017 53.6175C89.9672 52.4818 88.7938 50.9244 86.8811 50.1398Z" fill="white"/>
<path fill-rule="evenodd" clip-rule="evenodd" d="M80.279 64.2244C79.3409 64.2244 78.5811 65.0346 78.5811 66.0335C78.5811 67.0326 79.3409 67.8428 80.279 67.8428C81.2166 67.8428 81.9764 67.0326 81.9764 66.0335C81.9764 65.0346 81.2166 64.2244 80.279 64.2244Z" fill="white"/>
<path fill-rule="evenodd" clip-rule="evenodd" d="M55.0912 49.2002C63.3863 35.487 73.3322 26.2036 84.9291 21.3493C62.1809 -10.5367 52.2349 -1.25275 55.0912 49.2002Z" fill="#FF850B"/>
<path d="M64.2619 4.12316C63.7427 4.12316 63.2846 4.20723 62.8806 4.34948C59.0031 5.71376 54.7878 13.9869 56.1751 45.0748C63.7779 33.6044 72.7645 25.4568 82.946 20.8081C73.2418 7.48503 67.542 4.12316 64.2619 4.12316ZM54.0376 53.4395L53.8017 49.2745C52.1178 19.5276 54.7302 4.47786 62.0234 1.91154C67.7372 -0.0983543 75.5742 6.01345 85.9806 20.5998L86.9208 21.9176L85.4278 22.5425C74.1429 27.2661 64.308 36.4606 56.1965 49.8705L54.0376 53.4395Z" fill="#000072"/>
<g opacity="0.649994">
<g opacity="0.649994">
<path opacity="0.649994" fill-rule="evenodd" clip-rule="evenodd" d="M82.0816 22.6509C83.0202 22.1866 83.9708 21.7535 84.9323 21.3504C70.8336 1.58813 61.655 -2.35233 57.3911 9.51312C61.9319 1.16949 70.1613 5.54814 82.0801 22.6499L82.0816 22.6509Z" fill="white"/>
</g>
</g>
<path fill-rule="evenodd" clip-rule="evenodd" d="M61.3033 39.9053C65.347 34.9023 69.9298 30.5717 75.0522 26.9147C63.5694 4.54656 58.9861 8.87659 61.3033 39.9053Z" fill="#000072"/>
<path d="M64.2579 14.1517C64.2014 14.1517 64.1628 14.1593 64.1403 14.1656C64.002 14.2046 62.7747 14.7105 62.2496 20.4073C61.8957 24.2457 61.9376 29.6961 62.3724 36.6381C65.7112 32.8594 69.4048 29.4684 73.3936 26.5218C67.3516 14.9696 64.8452 14.1517 64.2579 14.1517ZM60.2574 43.2529L60.0149 40.0009C58.2516 16.39 60.7567 12.434 63.44 11.6781C66.6488 10.7719 70.4667 15.1538 76.2009 26.3239L76.711 27.3173L75.8021 27.966C70.8005 31.5365 66.2602 35.8267 62.3072 40.7172L60.2574 43.2529Z" fill="#000072"/>
<g opacity="0.300003">
<g opacity="0.300003">
<path opacity="0.300003" fill-rule="evenodd" clip-rule="evenodd" d="M62.7918 13.6056C58.6014 16.7404 55.8948 25.2216 54.6724 39.0485C54.746 42.2237 54.8847 45.6073 55.0879 49.2007C55.7076 48.0796 56.3628 46.9714 57.0552 45.8807L57.0066 46.1527C60.354 41.0454 63.9546 36.6178 67.8075 32.8691C65.5545 34.9948 63.4315 37.2833 61.4382 39.734C61.3991 39.782 61.3601 39.8296 61.3211 39.8787C61.3175 39.8826 61.3141 39.8872 61.3101 39.8927C61.3065 39.8967 61.3036 39.9008 61.3 39.9047C60.1773 24.8706 60.6748 16.1044 62.7918 13.6056ZM144.319 12.9522C148.51 16.0874 151.216 24.5681 152.438 38.3949C152.365 41.5702 152.226 44.9543 152.023 48.5472C151.403 47.426 150.748 46.3184 150.055 45.2272L150.104 45.4991C146.757 40.392 143.156 35.9643 139.303 32.2162C141.557 34.3419 143.679 36.6303 145.672 39.081C145.711 39.1286 145.751 39.1766 145.79 39.2252C145.793 39.2297 145.797 39.2342 145.8 39.2392C145.804 39.2437 145.807 39.2472 145.811 39.2518C146.934 24.2176 146.436 15.4509 144.319 12.9522Z" fill="#000072"/>
</g>
</g>
<g opacity="0.649994">
<g opacity="0.649994">
<path opacity="0.649994" fill-rule="evenodd" clip-rule="evenodd" d="M125.042 21.998C124.104 21.5338 123.153 21.1007 122.191 20.6981C136.29 0.935789 145.469 -3.00517 149.733 8.86029C145.192 0.516651 136.962 4.89574 125.044 21.9975L125.042 21.998Z" fill="white"/>
</g>
</g>
<path fill-rule="evenodd" clip-rule="evenodd" d="M145.812 39.2529C141.769 34.2494 137.186 29.9188 132.063 26.2618C143.546 3.89367 148.13 8.22414 145.812 39.2529Z" fill="#000072"/>
<path d="M133.723 25.8686C137.712 28.8157 141.406 32.2071 144.743 35.9852C145.178 29.0431 145.22 23.5929 144.866 19.7543C144.341 14.0574 143.114 13.5514 142.976 13.5126C142.721 13.4418 140.347 13.2033 133.723 25.8686ZM146.858 42.6006L144.809 40.0645C140.857 35.1746 136.317 30.8842 131.314 27.3128L130.405 26.6641L130.915 25.6707C136.649 14.5015 140.464 10.1199 143.676 11.0252C146.359 11.781 148.865 15.7371 147.101 39.3483L146.858 42.6006Z" fill="#000072"/>
<path d="M64.2605 4.12233C63.7413 4.12233 63.2832 4.2064 62.8792 4.34865C59.0016 5.71293 54.786 13.9863 56.1733 45.0741C63.7765 33.6036 72.763 25.4558 82.9445 20.8073C73.2404 7.4842 67.5406 4.12233 64.2605 4.12233ZM54.0354 53.4385L53.7996 49.2736C52.116 19.5267 54.7288 4.47681 62.0219 1.91071C67.7358 -0.0991859 75.5727 6.01262 85.9792 20.599L86.9193 21.9168L85.4263 22.5417C74.1415 27.2653 64.3065 36.4598 56.1944 49.8696L54.0354 53.4385Z" fill="#000072"/>
<path d="M104.243 18.4858C73.7639 18.4858 49.2203 49.2962 49.2203 74.806C49.2203 81.4394 52.234 87.6775 58.1781 93.3468C71.4182 105.975 95.5749 112.14 103.562 112.14C103.781 112.14 103.987 112.136 104.182 112.126C109.969 111.85 123.3 108.871 134.82 103.113C144.95 98.0494 157.025 89.1634 157.025 75.585C157.025 49.18 133.969 18.4858 104.243 18.4858ZM103.595 114.724C95.0266 114.724 70.3339 108.512 56.3956 95.2173C49.9203 89.041 46.6367 82.1737 46.6367 74.806C46.6367 61.5061 53.007 46.6843 63.6771 35.1578C75.0055 22.9203 89.7912 15.9016 104.243 15.9016C118.785 15.9016 132.805 22.8912 143.72 35.5828C153.669 47.1508 159.609 62.1048 159.609 75.585C159.609 87.3779 151.436 97.6963 135.975 105.425C124.118 111.351 110.317 114.421 104.304 114.708C104.083 114.718 103.845 114.724 103.595 114.724Z" fill="#000072"/>
<g opacity="0.559998">
<g opacity="0.559998">
<path opacity="0.559998" fill-rule="evenodd" clip-rule="evenodd" d="M105.56 69.4623C106.69 69.7602 107.525 70.3031 107.427 70.6756C107.329 71.0476 106.334 71.1083 105.205 70.8103C104.076 70.5129 103.24 69.9696 103.338 69.597C103.436 69.225 104.431 69.1643 105.56 69.4623Z" fill="white"/>
</g>
</g>
<path d="M75.6855 55.3726C77.7719 58.1443 79.8228 60.2875 81.8381 61.8023C84.8031 64.0306 88.0123 64.4207 88.3677 61.9665C86.7728 61.7838 85.111 61.0422 83.3819 59.7432C79.122 56.5404 77.7895 54.4783 75.6855 55.3726Z" fill="#000072"/>
<path d="M124.171 20.1547C134.352 24.8028 143.339 32.9505 150.942 44.4212C152.33 13.3334 148.114 5.06 144.237 3.69579C141.277 2.65542 135.41 4.72428 124.171 20.1547ZM153.08 52.7852L150.921 49.2165C142.809 35.8065 132.973 26.6122 121.689 21.8891L120.196 21.2642L121.136 19.9464C131.542 5.36097 139.376 -0.754356 145.094 1.25798C152.387 3.82409 155 18.8738 153.316 48.6206L153.08 52.7852Z" fill="#000072"/>
</g>
<defs>
<filter id="filter0_d_477_367" x="0" y="0.884766" width="208" height="192.461" filterUnits="userSpaceOnUse" color-interpolation-filters="sRGB">
<feFlood flood-opacity="0" result="BackgroundImageFix"/>
<feColorMatrix in="SourceAlpha" type="matrix" values="0 0 0 0 0 0 0 0 0 0 0 0 0 0 0 0 0 0 127 0" result="hardAlpha"/>
<feOffset dy="4"/>
<feGaussianBlur stdDeviation="2"/>
<feComposite in2="hardAlpha" operator="out"/>
<feColorMatrix type="matrix" values="0 0 0 0 0 0 0 0 0 0 0 0 0 0 0 0 0 0 0.25 0"/>
<feBlend mode="normal" in2="BackgroundImageFix" result="effect1_dropShadow_477_367"/>
<feBlend mode="normal" in="SourceGraphic" in2="effect1_dropShadow_477_367" result="shape"/>
</filter>
</defs>
</svg>
